<svg width="283" height="253" viewBox="0 0 283 253" fill="none" xmlns="http://www.w3.org/2000/svg">
<g clip-path="url(#clip0_137_3406)">
<path d="M94.9539 244.093L0 253V29.8019L94.9539 20.8952V244.093Z" fill="url(#paint0_linear_137_3406)"/>
<path d="M94.9539 244.093L189.908 253V29.8019L94.9539 20.8952V244.093Z" fill="url(#paint1_linear_137_3406)"/>
<path d="M283 244.093L189.908 253V29.8019L283 20.8952V244.093Z" fill="url(#paint2_linear_137_3406)"/>
<path d="M95.2903 237.898L3.02515 246.456V31.9986L95.2903 23.4405V237.898Z" fill="#F5F5F5"/>
<path d="M95.2903 237.898L187.556 246.456V31.9986L95.2903 23.4405V237.898Z" fill="white"/>
<path d="M279.82 237.898L187.555 246.456V31.9986L279.82 23.4405V237.898Z" fill="#F5F5F5"/>
<path opacity="0.3" d="M95.2903 43.1358L25.2091 45.591V55.1561V68.2448V77.8099H84.7022V66.1605L95.2903 65.7896L111.424 70.7621V48.1083L95.2903 43.1358Z" fill="#5AC568"/>
<path opacity="0.3" d="M95.2903 223.298L16.6381 230.85V202.155L95.2903 194.603V223.298Z" fill="#5AC568"/>
<path opacity="0.3" d="M86.6817 134.476L8.02936 142.027V113.332L86.6817 105.781V134.476Z" fill="#5AC568"/>
<path opacity="0.3" d="M175.959 201.148H141.675V227.326H175.959V201.148Z" fill="#5AC568"/>
<path opacity="0.3" d="M164.8 139.704H130.515V165.882H164.8V139.704Z" fill="#5AC568"/>
<path opacity="0.3" d="M178.829 57.886H144.544V84.0639H178.829V57.886Z" fill="#5AC568"/>
<path opacity="0.3" d="M266.712 215.243L213.269 219.774V185.038L266.712 180.508V215.243Z" fill="#5AC568"/>
<path opacity="0.3" d="M260.335 92.9934L206.892 97.5243V62.7884L260.335 58.2575V92.9934Z" fill="#5AC568"/>
<path d="M255.735 28.4574C255.735 40.9114 233.932 76.1792 233.932 76.1792C233.932 76.1792 212.129 40.9114 212.129 28.4574C212.129 16.0035 221.891 5.90753 233.932 5.90753C245.973 5.90753 255.735 16.0035 255.735 28.4574Z" fill="url(#paint3_linear_137_3406)"/>
<path d="M233.932 33.7016C237.572 33.7016 240.524 30.6493 240.524 26.8842C240.524 23.119 237.572 20.0668 233.932 20.0668C230.292 20.0668 227.34 23.119 227.34 26.8842C227.34 30.6493 230.292 33.7016 233.932 33.7016Z" fill="url(#paint4_linear_137_3406)"/>
<path d="M254.107 28.4978C254.107 39.6235 233.932 71.13 233.932 71.13C233.932 71.13 213.757 39.6235 213.757 28.4978C213.757 23.1551 215.882 18.0312 219.666 14.2533C223.449 10.4754 228.581 8.35297 233.932 8.35297C239.283 8.35297 244.414 10.4754 248.198 14.2533C251.982 18.0312 254.107 23.1551 254.107 28.4978Z" fill="#5AC568"/>
<path d="M233.932 33.1827C237.301 33.1827 240.031 30.456 240.031 27.0924C240.031 23.7288 237.301 21.0021 233.932 21.0021C230.563 21.0021 227.832 23.7288 227.832 27.0924C227.832 30.456 230.563 33.1827 233.932 33.1827Z" fill="white"/>
<path d="M71.8517 169.581C71.8517 182.123 49.4016 217.64 49.4016 217.64C49.4016 217.64 26.9516 182.123 26.9516 169.581C26.9516 157.039 37.0028 146.872 49.4016 146.872C61.8005 146.872 71.8517 157.039 71.8517 169.581Z" fill="url(#paint5_linear_137_3406)"/>
<path d="M49.4017 174.862C53.1501 174.862 56.1889 171.788 56.1889 167.997C56.1889 164.205 53.1501 161.131 49.4017 161.131C45.6532 161.131 42.6144 164.205 42.6144 167.997C42.6144 171.788 45.6532 174.862 49.4017 174.862Z" fill="url(#paint6_linear_137_3406)"/>
<path d="M69.577 169.455C69.577 180.581 49.4016 212.088 49.4016 212.088C49.4016 212.088 29.2263 180.581 29.2263 169.455C29.2252 166.809 29.7463 164.189 30.7597 161.744C31.7732 159.299 33.2591 157.077 35.1327 155.206C37.0062 153.334 39.2307 151.85 41.679 150.837C44.1273 149.824 46.7515 149.303 49.4016 149.303C52.0518 149.303 54.6759 149.824 57.1242 150.837C59.5725 151.85 61.797 153.334 63.6706 155.206C65.5441 157.077 67.0301 159.299 68.0435 161.744C69.0569 164.189 69.578 166.809 69.577 169.455H69.577Z" fill="#5AC568"/>
<path d="M49.4016 174.14C52.7703 174.14 55.5012 171.414 55.5012 168.05C55.5012 164.686 52.7703 161.96 49.4016 161.96C46.033 161.96 43.3021 164.686 43.3021 168.05C43.3021 171.414 46.033 174.14 49.4016 174.14Z" fill="white"/>
<path d="M178.939 171.047C178.939 182.173 158.764 213.679 158.764 213.679C158.764 213.679 138.589 182.173 138.589 171.047C138.588 168.401 139.109 165.781 140.122 163.336C141.136 160.891 142.622 158.669 144.495 156.797C146.369 154.926 148.593 153.441 151.041 152.429C153.49 151.416 156.114 150.894 158.764 150.894C161.414 150.894 164.038 151.416 166.487 152.429C168.935 153.441 171.159 154.926 173.033 156.797C174.907 158.669 176.392 160.891 177.406 163.336C178.419 165.781 178.94 168.401 178.939 171.047Z" fill="#5AC568"/>
<path d="M158.764 175.732C162.133 175.732 164.863 173.005 164.863 169.642C164.863 166.278 162.133 163.551 158.764 163.551C155.395 163.551 152.664 166.278 152.664 169.642C152.664 173.005 155.395 175.732 158.764 175.732Z" fill="white"/>
<path d="M258.012 158.313C258.012 169.439 237.837 200.945 237.837 200.945C237.837 200.945 217.661 169.439 217.661 158.313C217.661 152.97 219.787 147.846 223.57 144.068C227.354 140.29 232.486 138.168 237.837 138.168C243.187 138.168 248.319 140.29 252.103 144.068C255.886 147.846 258.012 152.97 258.012 158.313Z" fill="#5AC568"/>
<path d="M237.837 162.998C241.205 162.998 243.936 160.271 243.936 156.907C243.936 153.544 241.205 150.817 237.837 150.817C234.468 150.817 231.737 153.544 231.737 156.907C231.737 160.271 234.468 162.998 237.837 162.998Z" fill="white"/>
<path d="M79.7799 20.1449C79.7799 31.2706 59.6045 62.7771 59.6045 62.7771C59.6045 62.7771 39.4292 31.2706 39.4292 20.1449C39.4281 17.4988 39.9492 14.8783 40.9627 12.4333C41.9761 9.98831 43.462 7.76661 45.3356 5.89513C47.2091 4.02366 49.4336 2.53908 51.8819 1.52621C54.3302 0.513333 56.9544 -0.00799561 59.6045 -0.00799561C62.2547 -0.00799561 64.8788 0.513333 67.3272 1.52621C69.7755 2.53908 71.9999 4.02366 73.8735 5.89513C75.747 7.76661 77.233 9.98831 78.2464 12.4333C79.2598 14.8783 79.7809 17.4988 79.7799 20.1449H79.7799Z" fill="#5AC568"/>
<path d="M59.6045 24.8297C62.9732 24.8297 65.7041 22.103 65.7041 18.7394C65.7041 15.3758 62.9732 12.6491 59.6045 12.6491C56.2359 12.6491 53.505 15.3758 53.505 18.7394C53.505 22.103 56.2359 24.8297 59.6045 24.8297Z" fill="white"/>
</g>
<defs>
<linearGradient id="paint0_linear_137_3406" x1="47.4771" y1="253" x2="47.4771" y2="20.8951" gradientUnits="userSpaceOnUse">
<stop stop-color="#808080" stop-opacity="0.25"/>
<stop offset="0.53514" stop-color="#808080" stop-opacity="0.12"/>
<stop offset="1" stop-color="#808080" stop-opacity="0.1"/>
</linearGradient>
<linearGradient id="paint1_linear_137_3406" x1="42512.5" y1="184474" x2="42512.5" y2="15254.8" gradientUnits="userSpaceOnUse">
<stop stop-color="#808080" stop-opacity="0.25"/>
<stop offset="0.53514" stop-color="#808080" stop-opacity="0.12"/>
<stop offset="1" stop-color="#808080" stop-opacity="0.1"/>
</linearGradient>
<linearGradient id="paint2_linear_137_3406" x1="69227.4" y1="184474" x2="69227.4" y2="15254.8" gradientUnits="userSpaceOnUse">
<stop stop-color="#808080" stop-opacity="0.25"/>
<stop offset="0.53514" stop-color="#808080" stop-opacity="0.12"/>
<stop offset="1" stop-color="#808080" stop-opacity="0.1"/>
</linearGradient>
<linearGradient id="paint3_linear_137_3406" x1="233.932" y1="76.1792" x2="233.932" y2="5.90753" gradientUnits="userSpaceOnUse">
<stop stop-color="#B3B3B3" stop-opacity="0.25"/>
<stop offset="0.53514" stop-color="#B3B3B3" stop-opacity="0.1"/>
<stop offset="1" stop-color="#B3B3B3" stop-opacity="0.05"/>
</linearGradient>
<linearGradient id="paint4_linear_137_3406" x1="233.932" y1="33.7016" x2="233.932" y2="20.0668" gradientUnits="userSpaceOnUse">
<stop stop-opacity="0.12"/>
<stop offset="0.55135" stop-opacity="0.09"/>
<stop offset="1" stop-opacity="0.02"/>
</linearGradient>
<linearGradient id="paint5_linear_137_3406" x1="13997.4" y1="52252.4" x2="13997.4" y2="36521.1" gradientUnits="userSpaceOnUse">
<stop stop-color="#B3B3B3" stop-opacity="0.25"/>
<stop offset="0.53514" stop-color="#B3B3B3" stop-opacity="0.1"/>
<stop offset="1" stop-color="#B3B3B3" stop-opacity="0.05"/>
</linearGradient>
<linearGradient id="paint6_linear_137_3406" x1="49.4017" y1="174.862" x2="49.4017" y2="161.131" gradientUnits="userSpaceOnUse">
<stop offset="0.00541" stop-opacity="0.12"/>
<stop offset="0.55135" stop-opacity="0.09"/>
<stop offset="1" stop-opacity="0.05"/>
</linearGradient>
<clipPath id="clip0_137_3406">
<rect width="283" height="253" fill="white"/>
</clipPath>
</defs>
</svg>
