<svg width="312" height="254" viewBox="0 0 312 254" fill="none" xmlns="http://www.w3.org/2000/svg">
<g clip-path="url(#clip0_137_3354)">
<path opacity="0.1" d="M305.148 253.052C307.784 250.421 304.733 243.111 298.332 236.724C291.931 230.337 284.605 227.293 281.968 229.923C279.332 232.554 282.383 239.864 288.784 246.251C295.185 252.638 302.511 255.683 305.148 253.052Z" fill="#5AC568"/>
<path d="M294.718 242.555C296.72 242.555 298.342 240.436 298.342 237.821C298.342 235.206 296.72 233.086 294.718 233.086C292.717 233.086 291.094 235.206 291.094 237.821C291.094 240.436 292.717 242.555 294.718 242.555Z" fill="#3F3D56"/>
<path d="M294.718 236.769C296.72 236.769 298.342 234.649 298.342 232.034C298.342 229.419 296.72 227.299 294.718 227.299C292.717 227.299 291.094 229.419 291.094 232.034C291.094 234.649 292.717 236.769 294.718 236.769Z" fill="#3F3D56"/>
<path d="M294.718 230.983C296.72 230.983 298.342 228.863 298.342 226.248C298.342 223.633 296.72 221.513 294.718 221.513C292.717 221.513 291.094 223.633 291.094 226.248C291.094 228.863 292.717 230.983 294.718 230.983Z" fill="#3F3D56"/>
<path d="M294.718 225.197C296.72 225.197 298.342 223.077 298.342 220.462C298.342 217.847 296.72 215.727 294.718 215.727C292.717 215.727 291.094 217.847 291.094 220.462C291.094 223.077 292.717 225.197 294.718 225.197Z" fill="#3F3D56"/>
<path d="M294.718 219.41C296.72 219.41 298.342 217.29 298.342 214.676C298.342 212.061 296.72 209.941 294.718 209.941C292.717 209.941 291.094 212.061 291.094 214.676C291.094 217.29 292.717 219.41 294.718 219.41Z" fill="#3F3D56"/>
<path d="M294.718 213.624C296.72 213.624 298.342 211.504 298.342 208.889C298.342 206.274 296.72 204.154 294.718 204.154C292.717 204.154 291.094 206.274 291.094 208.889C291.094 211.504 292.717 213.624 294.718 213.624Z" fill="#3F3D56"/>
<path d="M294.718 207.838C296.72 207.838 298.342 205.718 298.342 203.103C298.342 200.488 296.72 198.368 294.718 198.368C292.717 198.368 291.094 200.488 291.094 203.103C291.094 205.718 292.717 207.838 294.718 207.838Z" fill="#3F3D56"/>
<path d="M308.285 163.505C308.781 162.877 309.232 162.215 309.636 161.524L300.112 159.964L310.413 160.038C311.401 157.893 311.94 155.569 311.998 153.209C312.056 150.849 311.632 148.502 310.75 146.312L296.934 153.466L309.67 144.118C308.477 142.057 306.871 140.264 304.953 138.85C303.035 137.436 300.845 136.431 298.521 135.899C296.196 135.366 293.787 135.317 291.442 135.755C289.098 136.192 286.869 137.107 284.895 138.442C282.921 139.777 281.243 141.503 279.967 143.514C278.691 145.524 277.843 147.775 277.478 150.127C277.112 152.478 277.235 154.88 277.841 157.182C278.446 159.483 279.52 161.636 280.996 163.505C280.224 164.484 279.56 165.542 279.017 166.663L291.378 173.066L278.206 168.651C277.281 171.381 277.053 174.298 277.542 177.139C278.031 179.979 279.221 182.653 281.006 184.918C278.992 187.473 277.739 190.542 277.39 193.775C277.042 197.007 277.612 200.271 279.035 203.195C280.459 206.119 282.678 208.585 285.439 210.31C288.201 212.034 291.393 212.949 294.65 212.949C297.908 212.949 301.1 212.034 303.862 210.31C306.623 208.585 308.842 206.119 310.266 203.195C311.689 200.271 312.259 197.007 311.91 193.775C311.562 190.542 310.309 187.473 308.295 184.918C310.702 181.865 312.01 178.093 312.01 174.209C312.01 170.324 310.702 166.552 308.295 163.499L308.285 163.505Z" fill="#5AC568"/>
<path opacity="0.1" d="M277.281 174.215C277.274 178.101 278.583 181.875 280.996 184.925C278.982 187.48 277.729 190.549 277.38 193.781C277.032 197.013 277.602 200.278 279.025 203.202C280.449 206.126 282.668 208.591 285.429 210.316C288.191 212.041 291.383 212.956 294.64 212.956C297.898 212.956 301.09 212.041 303.852 210.316C306.613 208.591 308.832 206.126 310.256 203.202C311.679 200.278 312.249 197.013 311.9 193.781C311.552 190.549 310.299 187.48 308.285 184.925C310.612 181.98 277.281 172.271 277.281 174.215Z" fill="black"/>
<path d="M286.052 0V242.64L203.644 231.182L103.469 251.574L102.661 251.739L22.9559 229.834V18.872L105.701 0L196.214 18.872L199.656 18.1474L286.052 0Z" fill="#14705A"/>
<path d="M272.205 13.2508V230.349L198.474 220.098L108.842 238.343L108.119 238.488L36.803 218.891V30.1345L110.841 13.2508L191.824 30.1345L194.904 29.4875L272.205 13.2508Z" fill="white"/>
<path opacity="0.1" d="M203.644 231.182L103.469 251.574L105.701 0L196.214 18.872L199.656 18.1474L203.644 231.182Z" fill="black"/>
<g opacity="0.3">
<path opacity="0.3" d="M193.641 46.506L193.681 117.107H223.064V88.1254H273.387L279.297 80.5631" stroke="#444053" stroke-width="3" stroke-miterlimit="10"/>
<path opacity="0.3" d="M30.0484 68.9164H139.306L146.06 65.8834H148.762V133.957H196.045L198.072 140.023V170.69H234.547V208.603" stroke="#444053" stroke-width="3" stroke-miterlimit="10"/>
<path opacity="0.3" d="M163.194 208.603V133.957" stroke="#444053" stroke-width="3" stroke-miterlimit="10"/>
<path opacity="0.3" d="M279.297 188.605H163.194" stroke="#444053" stroke-width="3" stroke-miterlimit="10"/>
<path opacity="0.3" d="M250.218 46.506V208.603" stroke="#444053" stroke-width="3" stroke-miterlimit="10"/>
<path opacity="0.3" d="M29.7106 174.276H279.297" stroke="#444053" stroke-width="3" stroke-miterlimit="10"/>
<path opacity="0.3" d="M60.0865 208.603V46.506" stroke="#444053" stroke-width="3" stroke-miterlimit="10"/>
<path opacity="0.3" d="M118.103 46.506V208.603" stroke="#444053" stroke-width="3" stroke-miterlimit="10"/>
<path opacity="0.3" d="M30.0484 87.4514L223.064 88.1254" stroke="#444053" stroke-width="3" stroke-miterlimit="10"/>
<path opacity="0.3" d="M86.2239 46.7991V208.603" stroke="#444053" stroke-width="3" stroke-miterlimit="10"/>
<path opacity="0.3" d="M29.7106 124.966H118.103L163.194 174.276" stroke="#444053" stroke-width="3" stroke-miterlimit="10"/>
<path opacity="0.3" d="M172.961 46.506V133.957" stroke="#444053" stroke-width="3" stroke-miterlimit="10"/>
<path opacity="0.3" d="M163.194 149.621H279.297" stroke="#444053" stroke-width="3" stroke-miterlimit="10"/>
</g>
<path d="M197.903 148.954H163.792V134.126L196.045 133.957L198.072 139.686L197.903 148.954Z" fill="#5AC568"/>
<path d="M181.016 72.118C176.064 72.118 171.316 74.0807 167.814 77.5744C164.313 81.0681 162.346 85.8065 162.346 90.7473C162.346 101.036 181.016 134.463 181.016 134.463C181.016 134.463 199.686 101.049 199.686 90.7473C199.686 85.8065 197.719 81.0681 194.218 77.5744C190.716 74.0807 185.968 72.118 181.016 72.118ZM181.016 98.6937C179.392 98.6937 177.803 98.2131 176.453 97.3125C175.102 96.4119 174.049 95.1319 173.428 93.6343C172.806 92.1367 172.643 90.4888 172.96 88.899C173.277 87.3092 174.059 85.8488 175.208 84.7026C176.357 83.5564 177.82 82.7758 179.414 82.4596C181.007 82.1433 182.658 82.3056 184.159 82.926C185.66 83.5463 186.943 84.5968 187.845 85.9446C188.748 87.2924 189.23 88.8769 189.23 90.4979C189.229 92.671 188.363 94.7548 186.823 96.2911C185.283 97.8274 183.194 98.6904 181.016 98.6904V98.6937Z" fill="#5AC568"/>
<path opacity="0.1" d="M181.016 72.118C176.064 72.118 171.316 74.0807 167.814 77.5744C164.313 81.0681 162.346 85.8065 162.346 90.7473C162.346 101.036 181.016 134.463 181.016 134.463C181.016 134.463 199.686 101.049 199.686 90.7473C199.686 85.8065 197.719 81.0681 194.218 77.5744C190.716 74.0807 185.968 72.118 181.016 72.118ZM181.016 98.6937C179.392 98.6937 177.803 98.2131 176.453 97.3125C175.102 96.4119 174.049 95.1319 173.428 93.6343C172.806 92.1367 172.643 90.4888 172.96 88.899C173.277 87.3092 174.059 85.8488 175.208 84.7026C176.357 83.5564 177.82 82.7758 179.414 82.4596C181.007 82.1433 182.658 82.3056 184.159 82.926C185.66 83.5463 186.943 84.5968 187.845 85.9446C188.748 87.2924 189.23 88.8769 189.23 90.4979C189.229 92.671 188.363 94.7548 186.823 96.2911C185.283 97.8274 183.194 98.6904 181.016 98.6904V98.6937Z" fill="black"/>
<path d="M181.016 74.8139C176.064 74.8139 171.316 76.7766 167.814 80.2703C164.313 83.764 162.346 88.5024 162.346 93.4432C162.346 103.732 181.016 137.159 181.016 137.159C181.016 137.159 199.686 103.745 199.686 93.4432C199.686 88.5024 197.719 83.764 194.218 80.2703C190.716 76.7766 185.968 74.8139 181.016 74.8139ZM181.016 101.39C179.392 101.39 177.803 100.909 176.453 100.008C175.102 99.1079 174.049 97.8279 173.428 96.3303C172.806 94.8327 172.643 93.1848 172.96 91.5949C173.277 90.0051 174.059 88.5447 175.208 87.3985C176.357 86.2523 177.82 85.4718 179.414 85.1555C181.007 84.8393 182.658 85.0016 184.159 85.6219C185.66 86.2422 186.943 87.2927 187.845 88.6405C188.748 89.9883 189.23 91.5729 189.23 93.1939C189.229 95.367 188.363 97.4507 186.823 98.987C185.283 100.523 183.194 101.386 181.016 101.386V101.39Z" fill="#5AC568"/>
<path opacity="0.1" d="M174.688 251.427C180.418 248.964 184.24 245.059 183.223 242.703C182.206 240.347 176.737 240.434 171.006 242.897C165.276 245.359 161.455 249.265 162.471 251.621C163.488 253.976 168.958 253.89 174.688 251.427Z" fill="#5AC568"/>
<path d="M172.715 248.588C174.095 248.588 175.214 247.127 175.214 245.326C175.214 243.524 174.095 242.063 172.715 242.063C171.334 242.063 170.215 243.524 170.215 245.326C170.215 247.127 171.334 248.588 172.715 248.588Z" fill="#3F3D56"/>
<path d="M172.715 244.598C174.095 244.598 175.214 243.137 175.214 241.336C175.214 239.534 174.095 238.073 172.715 238.073C171.334 238.073 170.215 239.534 170.215 241.336C170.215 243.137 171.334 244.598 172.715 244.598Z" fill="#3F3D56"/>
<path d="M172.715 240.611C174.095 240.611 175.214 239.15 175.214 237.349C175.214 235.547 174.095 234.087 172.715 234.087C171.334 234.087 170.215 235.547 170.215 237.349C170.215 239.15 171.334 240.611 172.715 240.611Z" fill="#3F3D56"/>
<path d="M172.715 236.624C174.095 236.624 175.214 235.164 175.214 233.362C175.214 231.56 174.095 230.1 172.715 230.1C171.334 230.1 170.215 231.56 170.215 233.362C170.215 235.164 171.334 236.624 172.715 236.624Z" fill="#3F3D56"/>
<path d="M172.715 232.634C174.095 232.634 175.214 231.174 175.214 229.372C175.214 227.57 174.095 226.11 172.715 226.11C171.334 226.11 170.215 227.57 170.215 229.372C170.215 231.174 171.334 232.634 172.715 232.634Z" fill="#3F3D56"/>
<path d="M172.715 228.647C174.095 228.647 175.214 227.187 175.214 225.385C175.214 223.584 174.095 222.123 172.715 222.123C171.334 222.123 170.215 223.584 170.215 225.385C170.215 227.187 171.334 228.647 172.715 228.647Z" fill="#3F3D56"/>
<path d="M172.715 224.661C174.095 224.661 175.214 223.2 175.214 221.399C175.214 219.597 174.095 218.136 172.715 218.136C171.334 218.136 170.215 219.597 170.215 221.399C170.215 223.2 171.334 224.661 172.715 224.661Z" fill="#3F3D56"/>
<path d="M163.363 194.105C163.022 193.677 162.711 193.227 162.43 192.757L168.996 191.679L161.904 191.733C161.224 190.254 160.852 188.653 160.813 187.026C160.773 185.4 161.066 183.783 161.674 182.273L171.198 187.186L162.417 180.743C163.239 179.323 164.346 178.088 165.668 177.114C166.99 176.14 168.499 175.448 170.101 175.081C171.702 174.714 173.363 174.681 174.978 174.982C176.593 175.284 178.129 175.914 179.489 176.834C180.85 177.754 182.006 178.944 182.885 180.329C183.765 181.714 184.349 183.265 184.601 184.886C184.853 186.506 184.768 188.161 184.351 189.747C183.934 191.333 183.195 192.817 182.178 194.105C182.705 194.78 183.158 195.51 183.529 196.282L175.014 200.7L184.1 197.667C184.738 199.549 184.895 201.559 184.559 203.517C184.222 205.475 183.401 207.317 182.171 208.879C183.56 210.64 184.424 212.756 184.664 214.984C184.904 217.212 184.512 219.462 183.531 221.478C182.55 223.494 181.02 225.193 179.116 226.382C177.213 227.571 175.013 228.202 172.767 228.202C170.521 228.202 168.321 227.571 166.417 226.382C164.514 225.193 162.984 223.494 162.003 221.478C161.022 219.462 160.629 217.212 160.87 214.984C161.11 212.756 161.974 210.64 163.363 208.879C161.704 206.774 160.803 204.175 160.803 201.497C160.803 198.82 161.704 196.22 163.363 194.115V194.105Z" fill="#5AC568"/>
<path opacity="0.1" d="M184.731 201.475C184.736 204.154 183.834 206.756 182.171 208.859C183.56 210.62 184.424 212.735 184.664 214.963C184.904 217.191 184.512 219.442 183.531 221.458C182.55 223.473 181.02 225.173 179.116 226.362C177.213 227.551 175.013 228.182 172.767 228.182C170.521 228.182 168.321 227.551 166.417 226.362C164.514 225.173 162.984 223.473 162.003 221.458C161.022 219.442 160.629 217.191 160.87 214.963C161.11 212.735 161.974 210.62 163.363 208.859C161.758 206.837 184.731 200.147 184.731 201.475Z" fill="black"/>
<path opacity="0.1" d="M27.8665 245.638C30.503 243.007 27.4515 235.697 21.0507 229.31C14.6499 222.923 7.32365 219.878 4.68709 222.509C2.05053 225.14 5.10205 232.45 11.5029 238.837C17.9037 245.224 25.2299 248.269 27.8665 245.638Z" fill="#5AC568"/>
<path d="M17.4373 235.141C19.4387 235.141 21.0612 233.022 21.0612 230.407C21.0612 227.792 19.4387 225.672 17.4373 225.672C15.4358 225.672 13.8134 227.792 13.8134 230.407C13.8134 233.022 15.4358 235.141 17.4373 235.141Z" fill="#3F3D56"/>
<path d="M17.4373 229.355C19.4387 229.355 21.0612 227.235 21.0612 224.62C21.0612 222.005 19.4387 219.886 17.4373 219.886C15.4358 219.886 13.8134 222.005 13.8134 224.62C13.8134 227.235 15.4358 229.355 17.4373 229.355Z" fill="#3F3D56"/>
<path d="M17.4373 223.569C19.4387 223.569 21.0612 221.449 21.0612 218.834C21.0612 216.219 19.4387 214.099 17.4373 214.099C15.4358 214.099 13.8134 216.219 13.8134 218.834C13.8134 221.449 15.4358 223.569 17.4373 223.569Z" fill="#3F3D56"/>
<path d="M17.4373 217.783C19.4387 217.783 21.0612 215.663 21.0612 213.048C21.0612 210.433 19.4387 208.313 17.4373 208.313C15.4358 208.313 13.8134 210.433 13.8134 213.048C13.8134 215.663 15.4358 217.783 17.4373 217.783Z" fill="#3F3D56"/>
<path d="M17.4373 211.996C19.4387 211.996 21.0612 209.877 21.0612 207.262C21.0612 204.647 19.4387 202.527 17.4373 202.527C15.4358 202.527 13.8134 204.647 13.8134 207.262C13.8134 209.877 15.4358 211.996 17.4373 211.996Z" fill="#3F3D56"/>
<path d="M17.4373 206.21C19.4387 206.21 21.0612 204.09 21.0612 201.475C21.0612 198.86 19.4387 196.74 17.4373 196.74C15.4358 196.74 13.8134 198.86 13.8134 201.475C13.8134 204.09 15.4358 206.21 17.4373 206.21Z" fill="#3F3D56"/>
<path d="M17.4373 200.424C19.4387 200.424 21.0612 198.304 21.0612 195.689C21.0612 193.074 19.4387 190.954 17.4373 190.954C15.4358 190.954 13.8134 193.074 13.8134 195.689C13.8134 198.304 15.4358 200.424 17.4373 200.424Z" fill="#3F3D56"/>
<path d="M31.0041 156.092C31.4999 155.463 31.9513 154.801 32.355 154.11L22.8309 152.55L33.1318 152.624C34.12 150.479 34.6595 148.155 34.7176 145.795C34.7757 143.436 34.351 141.089 33.4695 138.898L19.6528 146.052L32.3888 136.704C31.1958 134.643 29.5901 132.85 27.672 131.436C25.7538 130.022 23.5642 129.017 21.2398 128.485C18.9154 127.952 16.5059 127.903 14.1617 128.341C11.8174 128.778 9.58861 129.693 7.61427 131.028C5.63994 132.363 3.96238 134.089 2.68621 136.1C1.41004 138.11 0.562609 140.361 0.196769 142.713C-0.169071 145.064 -0.045477 147.466 0.559838 149.768C1.16515 152.069 2.23921 154.222 3.71505 156.092C2.943 157.07 2.27942 158.128 1.73592 159.249L14.097 165.652L0.925351 161.237C0.000488244 163.968 -0.227842 166.885 0.261006 169.725C0.749855 172.565 1.94047 175.239 3.72518 177.504C1.71109 180.059 0.458174 183.128 0.109691 186.361C-0.238791 189.593 0.331219 192.857 1.75455 195.781C3.17789 198.705 5.3971 201.171 8.15846 202.896C10.9198 204.62 14.1119 205.535 17.3697 205.535C20.6275 205.535 23.8196 204.62 26.5809 202.896C29.3423 201.171 31.5615 198.705 32.9848 195.781C34.4082 192.857 34.9782 189.593 34.6297 186.361C34.2812 183.128 33.0283 180.059 31.0142 177.504C33.4207 174.451 34.7291 170.679 34.7291 166.795C34.7291 162.91 33.4207 159.138 31.0142 156.085L31.0041 156.092Z" fill="#5AC568"/>
<path opacity="0.1" d="M-6.23085e-06 166.801C-0.00653296 170.687 1.30259 174.461 3.71508 177.511C1.70099 180.066 0.448077 183.135 0.0995942 186.367C-0.248888 189.599 0.321122 192.864 1.74446 195.788C3.16779 198.712 5.387 201.178 8.14837 202.902C10.9097 204.627 14.1018 205.542 17.3596 205.542C20.6174 205.542 23.8095 204.627 26.5708 202.902C29.3322 201.178 31.5514 198.712 32.9747 195.788C34.3981 192.864 34.9681 189.599 34.6196 186.367C34.2711 183.135 33.0182 180.066 31.0041 177.511C33.3311 174.566 -6.23085e-06 164.857 -6.23085e-06 166.801Z" fill="black"/>
</g>
<defs>
<clipPath id="clip0_137_3354">
<rect width="312" height="254" fill="white"/>
</clipPath>
</defs>
</svg>
