<svg width="393" height="253" viewBox="0 0 393 253" fill="none" xmlns="http://www.w3.org/2000/svg">
<path d="M392.375 21.7883H31.7053V252.566H392.375V21.7883Z" fill="#3F3D56"/>
<path d="M382.118 63.4568H219.731V252.353H382.118V63.4568Z" fill="#F2F2F2"/>
<path d="M17.1508 239.652C22.0865 248.806 32.5618 252.736 32.5618 252.736C32.5618 252.736 35.0348 241.824 30.0991 232.67C25.1634 223.516 14.6881 219.586 14.6881 219.586C14.6881 219.586 12.2152 230.498 17.1508 239.652Z" fill="#3F3D56"/>
<path d="M20.543 236.641C29.4539 242.002 32.8858 252.652 32.8858 252.652C32.8858 252.652 21.8702 254.608 12.9593 249.247C4.04835 243.885 0.616455 233.236 0.616455 233.236C0.616455 233.236 11.632 231.279 20.543 236.641Z" fill="#5AC568"/>
<path d="M373.145 81.033H274.657V85.0045H373.145V81.033Z" fill="white"/>
<path d="M373.145 89.7705H274.657V93.7421H373.145V89.7705Z" fill="white"/>
<path d="M308.016 98.5082H274.657V102.48H308.016V98.5082Z" fill="white"/>
<path d="M170.903 200.269H72.4152V204.24H170.903V200.269Z" fill="white"/>
<path d="M170.903 209.006H72.4152V212.977H170.903V209.006Z" fill="white"/>
<path d="M105.774 217.743H72.4152V221.715H105.774V217.743Z" fill="white"/>
<path d="M350.068 129.752H251.581V133.724H350.068V129.752Z" fill="white"/>
<path d="M350.068 138.49H251.581V142.462H350.068V138.49Z" fill="white"/>
<path d="M350.068 147.038H251.581V151.009H350.068V147.038Z" fill="white"/>
<path d="M350.068 155.585H251.581V159.557H350.068V155.585Z" fill="white"/>
<path d="M350.068 164.132H251.581V168.103H350.068V164.132Z" fill="white"/>
<path d="M350.068 172.679H251.581V176.651H350.068V172.679Z" fill="white"/>
<path d="M350.068 181.227H251.581V185.199H350.068V181.227Z" fill="white"/>
<path d="M350.068 189.774H251.581V193.746H350.068V189.774Z" fill="white"/>
<path d="M350.068 198.322H251.581V202.293H350.068V198.322Z" fill="white"/>
<path d="M350.068 206.869H251.581V210.84H350.068V206.869Z" fill="white"/>
<path d="M350.068 215.416H251.581V219.388H350.068V215.416Z" fill="white"/>
<path d="M157.546 137.117C157.552 142.468 156.359 147.752 154.053 152.581C151.748 157.41 148.39 161.66 144.226 165.02C142.686 166.271 141.044 167.391 139.316 168.366C138.274 168.959 137.201 169.496 136.103 169.978C132.462 171.584 128.578 172.568 124.612 172.888C123.637 172.969 122.653 173.009 121.659 173.008C119.691 173.01 117.728 172.848 115.787 172.525C115.103 172.418 114.428 172.285 113.762 172.132C112.596 171.872 111.445 171.553 110.313 171.174C105.658 169.622 101.371 167.128 97.7194 163.849C96.7788 163.015 95.887 162.128 95.0486 161.191C91.1412 156.87 88.3442 151.664 86.8993 146.02C85.4544 140.377 85.405 134.466 86.7553 128.8C88.1056 123.133 90.815 117.88 94.6496 113.494C98.4842 109.109 103.329 105.723 108.764 103.63C114.2 101.536 120.064 100.797 125.849 101.477C131.635 102.156 137.167 104.234 141.97 107.531C146.772 110.828 150.7 115.245 153.414 120.399C156.128 125.554 157.546 131.292 157.546 137.117Z" fill="#5AC568"/>
<path d="M264.311 97.0809C264.362 108.568 257.552 112.609 249.129 112.646C248.933 112.647 248.739 112.646 248.545 112.642C248.154 112.636 247.768 112.619 247.386 112.594C239.782 112.089 233.856 107.899 233.809 97.2163C233.76 86.1606 247.827 72.1458 248.882 71.1095L248.884 71.1086C248.924 71.0691 248.944 71.0493 248.944 71.0493C248.944 71.0493 264.26 85.5946 264.311 97.0809Z" fill="#5AC568"/>
<path d="M248.567 110.891L254.11 103.073L248.557 111.747L248.546 112.642C248.155 112.635 247.769 112.619 247.387 112.594L247.936 101.099L247.931 101.01L247.942 100.994L247.994 99.9074L242.349 91.2609L248.007 99.0938L248.022 99.3241L248.438 90.6395L243.599 81.7001L248.49 89.1133L248.883 71.1095L248.884 71.0496L248.885 71.1085L248.869 85.3053L253.621 79.6561L248.854 86.5279L248.762 94.303L253.191 86.8223L248.749 95.4461L248.698 99.7695L255.128 89.3553L248.68 101.278L248.567 110.891Z" fill="#3F3D56"/>
<path d="M392.161 122.86C376.294 122.86 361.077 129.164 349.857 140.385C338.637 151.605 332.334 166.824 332.334 182.692V182.692C332.334 187.339 330.488 191.796 327.202 195.082C323.917 198.368 319.46 200.214 314.813 200.214H285.755C278.908 200.214 272.129 201.562 265.803 204.183C259.478 206.803 253.731 210.643 248.89 215.485C244.049 220.326 240.208 226.074 237.588 232.4C234.968 238.726 233.62 245.506 233.62 252.353V252.353H392.161V122.86H392.161Z" fill="#3F3D56"/>
<path d="M215.672 21.7883H207.98V252.566H215.672V21.7883Z" fill="#2F2E41"/>
<path d="M137.257 18.3693V12.3862C137.255 9.10047 135.948 5.95002 133.624 3.62737C131.3 1.30473 128.149 0 124.864 0C121.578 0 118.427 1.30473 116.104 3.62737C113.78 5.95002 112.473 9.10047 112.471 12.3862V18.3693H88.9679V31.6177H160.76V18.3693H137.257ZM124.864 3.41147C126.301 3.41147 127.705 3.83757 128.9 4.63589C130.095 5.4342 131.026 6.56888 131.576 7.89642C132.125 9.22397 132.269 10.6848 131.989 12.0941C131.709 13.5034 131.017 14.7979 130.001 15.814C128.985 16.8301 127.69 17.522 126.281 17.8023C124.872 18.0827 123.411 17.9388 122.084 17.3889C120.756 16.839 119.622 15.9078 118.824 14.7131C118.025 13.5183 117.599 12.1136 117.599 10.6767C117.599 9.72263 117.787 8.77788 118.152 7.89642C118.517 7.01497 119.052 6.21405 119.727 5.53941C120.402 4.86477 121.202 4.32962 122.084 3.96451C122.965 3.5994 123.91 3.41147 124.864 3.41147Z" fill="#5AC568"/>
<path d="M128.032 134.749C128.032 134.749 124.462 144.91 126.659 146.473C128.855 148.036 119.245 160.801 119.245 160.801L107.713 157.675L114.028 146.994C114.028 146.994 114.852 136.313 114.852 134.749C114.852 133.186 128.032 134.749 128.032 134.749Z" fill="#FFB8B8"/>
<path opacity="0.1" d="M128.032 134.749C128.032 134.749 124.462 144.91 126.659 146.473C128.855 148.036 119.245 160.801 119.245 160.801L107.713 157.675L114.028 146.994C114.028 146.994 114.852 136.313 114.852 134.749C114.852 133.186 128.032 134.749 128.032 134.749Z" fill="black"/>
<path d="M120.737 142.304C125.917 142.304 130.115 138.105 130.115 132.925C130.115 127.746 125.917 123.547 120.737 123.547C115.558 123.547 111.36 127.746 111.36 132.925C111.36 138.105 115.558 142.304 120.737 142.304Z" fill="#FFB8B8"/>
<path d="M113.762 172.132C112.597 171.872 111.445 171.553 110.313 171.174L112.108 158.866L112.664 155.071L115.51 156.14C115.894 156.281 116.33 156.447 116.83 156.631C117.212 156.781 117.621 156.85 118.031 156.835C118.441 156.821 118.844 156.722 119.215 156.546C121.967 155.285 123.603 150.379 123.603 150.379C123.603 150.379 123.714 151.755 123.86 154.084C124.12 158.174 124.496 165.208 124.612 172.888C123.638 172.969 122.653 173.009 121.659 173.008C119.692 173.01 117.728 172.848 115.787 172.525C115.104 172.418 114.428 172.285 113.762 172.132Z" fill="#D0CDE1"/>
<path d="M116.308 148.819L115.509 156.139L115.12 159.682L113.762 172.132C112.596 171.872 111.445 171.553 110.313 171.174C105.658 169.621 101.371 167.128 97.7195 163.849L95.9888 157.674C95.998 157.305 96.0352 156.938 96.0999 156.575C96.0996 156.573 96.0998 156.571 96.1006 156.568C96.1013 156.566 96.1025 156.564 96.1042 156.563C96.1551 156.239 96.2265 155.92 96.3178 155.605C96.3201 155.601 96.3216 155.597 96.3221 155.592C96.6287 154.417 97.2319 153.34 98.0742 152.464C100.16 150.379 113.962 143.865 113.962 143.865L114.223 144.413L116.308 148.819Z" fill="#D0CDE1"/>
<path d="M120.538 119.671C122.616 119.597 124.841 119.56 126.594 120.68C127.401 121.243 128.108 121.935 128.687 122.73C130.394 124.888 131.87 127.604 131.235 130.282L130.499 129.994C130.499 130.709 130.658 131.415 130.964 132.061C130.86 131.759 130.513 132.247 130.606 132.552L131.417 135.214C131.082 135.11 130.729 135.079 130.381 135.121C130.032 135.162 129.697 135.277 129.395 135.457C129.094 135.636 128.834 135.877 128.632 136.164C128.43 136.451 128.29 136.777 128.222 137.121C128.129 134.029 127.808 130.484 125.3 128.673C124.035 127.76 122.435 127.482 120.895 127.234C119.474 127.006 117.985 126.788 116.624 127.256C115.263 127.724 114.104 129.115 114.413 130.521C114.088 130.448 113.749 130.488 113.45 130.635C113.152 130.782 112.913 131.027 112.774 131.329C112.511 131.941 112.396 132.607 112.438 133.271C111.769 133.744 111.008 132.805 110.735 132.033C110.095 130.22 109.527 128.29 109.871 126.399C110.216 124.507 111.757 122.7 113.68 122.693C113.446 122.437 113.322 122.1 113.333 121.753L114.917 121.62C114.515 121.563 114.145 121.368 113.871 121.068C114.507 121.768 119.509 119.708 120.538 119.671Z" fill="#2F2E41"/>
<path d="M142.359 155.592C142.116 157.545 140.723 163.063 139.317 168.366C138.274 168.959 137.202 169.496 136.103 169.978C132.463 171.584 128.579 172.568 124.612 172.888C123.638 172.969 122.654 173.009 121.659 173.008C119.692 173.01 117.728 172.848 115.788 172.525C116.514 169.721 117.493 165.101 118.407 160.575C118.685 159.208 118.959 157.845 119.215 156.545C120.219 151.426 120.997 147.254 120.997 147.254C120.997 147.254 124.117 144.194 125.967 143.485C126.218 143.373 126.493 143.328 126.766 143.353C128.292 143.605 130.377 147.254 130.377 147.254C130.377 147.254 139.736 150.374 141.924 153.917C142.257 154.409 142.41 155 142.359 155.592Z" fill="#D0CDE1"/>
<path d="M102.762 155.593L102.215 167.285C100.628 166.261 99.1244 165.112 97.7197 163.849C96.779 163.015 95.8872 162.128 95.0488 161.191C95.4975 159.221 95.8736 157.563 96.1001 156.575C96.0998 156.573 96.1 156.571 96.1008 156.569C96.1015 156.566 96.1027 156.564 96.1044 156.563C96.224 156.016 96.3009 155.678 96.318 155.605C96.3203 155.601 96.3218 155.597 96.3223 155.593H102.762Z" fill="#D0CDE1"/>
<path d="M144.226 165.02C142.687 166.272 141.044 167.391 139.316 168.367C138.274 168.959 137.201 169.497 136.103 169.978L135.064 163.926L136.107 152.464L141.923 153.917L142.359 154.029L144.226 165.02Z" fill="#D0CDE1"/>
</svg>
